<svg width="27" height="30" viewBox="0 0 27 30" fill="none" xmlns="http://www.w3.org/2000/svg">
<path fill-rule="evenodd" clip-rule="evenodd" d="M27 5C27 7.76142 24.7614 10 22 10C20.4843 10 19.1261 9.32557 18.2092 8.26044L9.6639 13.194C9.88095 13.7542 10 14.3632 10 15C10 15.7325 9.84249 16.4282 9.55949 17.0551L18.0377 21.95C18.952 20.764 20.3868 20 22 20C24.7614 20 27 22.2386 27 25C27 27.7614 24.7614 30 22 30C19.2386 30 17 27.7614 17 25C17 24.5688 17.0546 24.1503 17.1573 23.751L8.3807 18.6839C7.49064 19.5011 6.30358 20 5 20C2.23858 20 0 17.7614 0 15C0 12.2386 2.23858 10 5 10C6.40378 10 7.67244 10.5785 8.58059 11.5101L17.2334 6.51437C17.0818 6.03668 17 5.52789 17 5C17 2.23858 19.2386 0 22 0C24.7614 0 27 2.23858 27 5Z" fill="black"/>
</svg>
