<svg width="652" height="542" viewBox="0 0 652 542" fill="none" xmlns="http://www.w3.org/2000/svg">
<path fill-rule="evenodd" clip-rule="evenodd" d="M564.223 542C564.223 542 626.436 536.138 652 503.723C652 514.61 652 542 652 542H564.223ZM612.435 103.006H652V463.526H612.435V103.006ZM612.435 0C612.435 0 639.846 0 650.743 0C621.407 25.5416 612.435 81.5065 612.435 81.5065V0ZM509.931 0H549.496V540.152H509.931V0ZM417.655 477.011C438.39 497.736 462.745 471.666 462.745 471.666L423.786 540.746L250.27 364.205V540.152H213.809V365.238L40.3911 541.609L1.33398 472.391C1.33398 472.391 25.7561 498.507 46.5473 477.734C84.5225 439.792 144.31 383.16 178.95 348.55H0V309.017H213.809V224.854H0V188.425H213.809V139.435H250.27V188.425H466.517V224.854H250.27V309.017H466.517V348.55H286.031C320.637 383.141 379.936 439.309 417.655 477.011ZM338.277 138.178H301.817V0H338.277V45.222H465.26V84.7552H338.277V138.178ZM163.443 138.178H126.982V84.7552H0V45.222C0 45.222 63.285 45.222 126.982 45.222V0H163.443V46.0536C220.828 84.7552 278.213 84.7552 278.213 84.7552H163.443V138.178Z" fill="white" fill-opacity="0.2"/>
</svg>
