<svg width="168" height="228" viewBox="0 0 168 228" fill="none" xmlns="http://www.w3.org/2000/svg">
<path fill-rule="evenodd" clip-rule="evenodd" d="M157.779 193.86V153.517H168V193.86H157.779ZM147.24 183.934V193.86C147.24 193.86 127.45 193.86 125.202 193.86C138.026 192.502 147.24 183.934 147.24 183.934ZM109.551 153.517H119.772V193.86H109.551V153.517ZM79.2446 194.504C84.5797 192.8 88.8666 188.35 90.0787 182.477C91.8229 174.025 86.5577 165.758 78.2525 163.697L84.3472 153.513C95.0382 156.268 101.792 166.958 99.5368 177.884C97.5115 187.698 88.8854 194.461 79.2446 194.504ZM81.4356 183.597L77.5397 194.794C66.5529 194.255 57.8099 185.156 57.8099 174.008C57.8099 163.995 64.8652 155.636 74.2633 153.648C69.4006 156.392 66.1141 161.612 66.1141 167.605C66.1141 176.228 72.9168 183.256 81.4356 183.597ZM37.6882 153.517H47.9087V193.86H37.6882V153.517ZM1.80265 153.517L10.6536 148.394C10.6536 148.394 18.0785 161.286 23.9077 171.407C27.6746 177.948 31.3004 174.329 31.3004 174.329L21.9243 188.455L1.80265 153.517ZM0 193.86C0 193.86 0 164.403 0 161.521C1.70332 177.957 12.4563 193.86 12.4563 193.86H0Z" fill="white"/>
<path opacity="0.988" fill-rule="evenodd" clip-rule="evenodd" d="M145.383 140.07C145.383 140.07 161.413 138.559 168 130.206C168 133.012 168 140.07 168 140.07H145.383ZM157.805 26.939H168V119.847H157.805V26.939ZM157.805 0.39386C157.805 0.39386 164.868 0.39386 167.676 0.39386C160.117 6.97608 157.805 21.3985 157.805 21.3985V0.39386ZM131.393 0.39386H141.588V139.594H131.393V0.39386ZM107.617 123.322C112.959 128.663 119.235 121.945 119.235 121.945L109.196 139.747L64.4867 94.2513V139.594H55.092V94.5178L10.4075 139.969L0.343726 122.132C0.343726 122.132 6.63654 128.862 11.9938 123.508C21.7788 113.731 37.1841 99.1363 46.1097 90.2171H0V80.0292H55.092V58.3399H0V48.952H55.092V36.3269H64.4867V48.952H120.207V58.3399H64.4867V80.0292H120.207V90.2171H73.7013C82.6181 99.1314 97.8977 113.606 107.617 123.322ZM87.1635 36.0032H77.7688V0.39386H87.1635V12.0478H119.883V22.2357H87.1635V36.0032ZM42.1141 36.0032H32.7194V22.2357H0V12.0478C0 12.0478 16.3066 12.0478 32.7194 12.0478V0.39386H42.1141V12.2621C56.9004 22.2357 71.6867 22.2357 71.6867 22.2357H42.1141V36.0032Z" fill="#C19953"/>
<rect y="205.394" width="168" height="1.6" fill="#C19953"/>
<path fill-rule="evenodd" clip-rule="evenodd" d="M102.718 227.826V217.806H104.528V227.826H102.718ZM99.1247 223.532H94.8832V227.826H93.0728V217.806H94.8832V221.943H99.1247V217.806H100.935V227.826H99.1247V223.532ZM86.5905 221.7C86.8967 221.805 87.3147 221.924 87.844 222.057C88.5682 222.229 89.1621 222.408 89.6265 222.594C90.0909 222.78 90.4876 223.065 90.8174 223.446C91.1468 223.828 91.3117 224.343 91.3117 224.992C91.3117 225.545 91.1653 226.046 90.8729 226.495C90.5805 226.943 90.137 227.301 89.543 227.568C88.9487 227.835 88.2246 227.969 87.3705 227.969C86.6184 227.969 85.8916 227.859 85.191 227.64C84.4897 227.42 83.9351 227.13 83.5266 226.767L84.1532 225.321C84.5523 225.646 85.0422 225.91 85.6227 226.115C86.2028 226.321 86.7853 226.423 87.3705 226.423C88.0947 226.423 88.6355 226.304 88.9928 226.065C89.3502 225.827 89.5289 225.512 89.5289 225.121C89.5289 224.835 89.4293 224.598 89.2297 224.412C89.0298 224.226 88.7771 224.081 88.4706 223.976C88.1643 223.871 87.7464 223.752 87.2171 223.618C86.4744 223.437 85.8731 223.255 85.4137 223.074C84.9541 222.893 84.5593 222.609 84.2299 222.222C83.9001 221.836 83.7356 221.313 83.7356 220.655C83.7356 220.102 83.8816 219.598 84.174 219.145C84.4665 218.692 84.9076 218.331 85.4972 218.064C86.0867 217.797 86.8086 217.663 87.6629 217.663C88.2569 217.663 88.8417 217.74 89.4175 217.892C89.9933 218.045 90.49 218.264 90.9079 218.551L90.3368 219.996C89.9098 219.739 89.4639 219.543 88.9999 219.409C88.5355 219.276 88.0853 219.209 87.6488 219.209C86.9337 219.209 86.4024 219.333 86.0544 219.581C85.7062 219.829 85.5322 220.159 85.5322 220.569C85.5322 220.855 85.6318 221.089 85.8313 221.27C86.0309 221.452 86.2839 221.595 86.5905 221.7ZM76.441 227.826H74.8604V224.319L71.5165 217.806H73.2068L75.6993 222.687L78.2164 217.806H79.7728L76.441 224.29V227.826ZM71.8086 225.106C71.8086 225.975 71.5246 226.645 70.9576 227.118C70.3899 227.59 69.5631 227.826 68.4769 227.826H64.2456V217.806H68.2339C69.2387 217.806 70.013 218.038 70.5561 218.501C71.0993 218.964 71.3708 219.6 71.3708 220.412C71.3708 220.908 71.2736 221.347 71.0791 221.728C70.8846 222.11 70.617 222.406 70.2765 222.616C70.7466 222.797 71.1195 223.1 71.3951 223.525C71.6707 223.95 71.8086 224.477 71.8086 225.106ZM69.3343 219.617C69.0382 219.383 68.6148 219.266 68.0636 219.266H65.8262V222.029H68.0636C68.6148 222.029 69.0382 221.912 69.3343 221.678C69.6301 221.445 69.7781 221.103 69.7781 220.655C69.7781 220.197 69.6301 219.851 69.3343 219.617ZM68.3796 223.475H65.8262V226.366H68.3796C69.6035 226.366 70.2156 225.884 70.2156 224.92C70.2156 223.957 69.6035 223.475 68.3796 223.475Z" fill="#C19953"/>
</svg>
